<svg width="217" height="60" viewBox="0 0 217 60" fill="none" xmlns="http://www.w3.org/2000/svg">
<path d="M6.61133 40.7812H11.3184C12.3861 40.7812 13.2878 40.944 14.0234 41.2695C14.7656 41.5951 15.3288 42.0768 15.7129 42.7148C16.1035 43.3464 16.2988 44.1243 16.2988 45.0488C16.2988 45.6999 16.1654 46.2956 15.8984 46.8359C15.638 47.3698 15.2604 47.8255 14.7656 48.2031C14.2773 48.5742 13.6914 48.8509 13.0078 49.0332L12.4805 49.2383H8.05664L8.03711 47.7051H11.377C12.054 47.7051 12.6172 47.5879 13.0664 47.3535C13.5156 47.1126 13.8542 46.7904 14.082 46.3867C14.3099 45.9831 14.4238 45.5371 14.4238 45.0488C14.4238 44.502 14.3164 44.0234 14.1016 43.6133C13.8867 43.2031 13.5482 42.8874 13.0859 42.666C12.6302 42.4382 12.041 42.3242 11.3184 42.3242H8.49609V55H6.61133V40.7812ZM14.9219 55L11.4648 48.5547L13.4277 48.5449L16.9336 54.8828V55H14.9219ZM23.0469 55.1953C22.3112 55.1953 21.6439 55.0716 21.0449 54.8242C20.4525 54.5703 19.9414 54.2155 19.5117 53.7598C19.0885 53.304 18.763 52.7637 18.5352 52.1387C18.3073 51.5137 18.1934 50.8301 18.1934 50.0879V49.6777C18.1934 48.8184 18.3203 48.0534 18.5742 47.3828C18.8281 46.7057 19.1732 46.1328 19.6094 45.6641C20.0456 45.1953 20.5404 44.8405 21.0938 44.5996C21.6471 44.3587 22.2201 44.2383 22.8125 44.2383C23.5677 44.2383 24.2188 44.3685 24.7656 44.6289C25.319 44.8893 25.7715 45.2539 26.123 45.7227C26.4746 46.1849 26.735 46.7318 26.9043 47.3633C27.0736 47.9883 27.1582 48.6719 27.1582 49.4141V50.2246H19.2676V48.75H25.3516V48.6133C25.3255 48.1445 25.2279 47.6888 25.0586 47.2461C24.8958 46.8034 24.6354 46.4388 24.2773 46.1523C23.9193 45.8659 23.431 45.7227 22.8125 45.7227C22.4023 45.7227 22.0247 45.8105 21.6797 45.9863C21.3346 46.1556 21.0384 46.4095 20.791 46.748C20.5436 47.0866 20.3516 47.5 20.2148 47.9883C20.0781 48.4766 20.0098 49.0397 20.0098 49.6777V50.0879C20.0098 50.5892 20.0781 51.0612 20.2148 51.5039C20.3581 51.9401 20.5632 52.3242 20.8301 52.6562C21.1035 52.9883 21.4323 53.2487 21.8164 53.4375C22.207 53.6263 22.6497 53.7207 23.1445 53.7207C23.7826 53.7207 24.3229 53.5905 24.7656 53.3301C25.2083 53.0697 25.5957 52.7214 25.9277 52.2852L27.0215 53.1543C26.7936 53.4993 26.5039 53.8281 26.1523 54.1406C25.8008 54.4531 25.3678 54.707 24.8535 54.9023C24.3457 55.0977 23.7435 55.1953 23.0469 55.1953ZM33.4961 53.7109C33.9258 53.7109 34.3229 53.623 34.6875 53.4473C35.0521 53.2715 35.3516 53.0306 35.5859 52.7246C35.8203 52.4121 35.9538 52.0573 35.9863 51.6602H37.7051C37.6725 52.2852 37.4609 52.8678 37.0703 53.4082C36.6862 53.9421 36.1816 54.375 35.5566 54.707C34.9316 55.0326 34.2448 55.1953 33.4961 55.1953C32.7018 55.1953 32.0085 55.0553 31.416 54.7754C30.8301 54.4954 30.3418 54.1113 29.9512 53.623C29.5671 53.1348 29.2773 52.5749 29.082 51.9434C28.8932 51.3053 28.7988 50.6315 28.7988 49.9219V49.5117C28.7988 48.8021 28.8932 48.1315 29.082 47.5C29.2773 46.862 29.5671 46.2988 29.9512 45.8105C30.3418 45.3223 30.8301 44.9382 31.416 44.6582C32.0085 44.3783 32.7018 44.2383 33.4961 44.2383C34.3229 44.2383 35.0456 44.4076 35.6641 44.7461C36.2826 45.0781 36.7676 45.5339 37.1191 46.1133C37.4772 46.6862 37.6725 47.3372 37.7051 48.0664H35.9863C35.9538 47.6302 35.8301 47.2363 35.6152 46.8848C35.4069 46.5332 35.1204 46.2533 34.7559 46.0449C34.3978 45.8301 33.9779 45.7227 33.4961 45.7227C32.9427 45.7227 32.4772 45.8333 32.0996 46.0547C31.7285 46.2695 31.4323 46.5625 31.2109 46.9336C30.9961 47.2982 30.8398 47.7051 30.7422 48.1543C30.651 48.597 30.6055 49.0495 30.6055 49.5117V49.9219C30.6055 50.3841 30.651 50.8398 30.7422 51.2891C30.8333 51.7383 30.9863 52.1452 31.2012 52.5098C31.4225 52.8743 31.7188 53.1673 32.0898 53.3887C32.4674 53.6035 32.9362 53.7109 33.4961 53.7109ZM44.1211 55.1953C43.3854 55.1953 42.7181 55.0716 42.1191 54.8242C41.5267 54.5703 41.0156 54.2155 40.5859 53.7598C40.1628 53.304 39.8372 52.7637 39.6094 52.1387C39.3815 51.5137 39.2676 50.8301 39.2676 50.0879V49.6777C39.2676 48.8184 39.3945 48.0534 39.6484 47.3828C39.9023 46.7057 40.2474 46.1328 40.6836 45.6641C41.1198 45.1953 41.6146 44.8405 42.168 44.5996C42.7214 44.3587 43.2943 44.2383 43.8867 44.2383C44.6419 44.2383 45.293 44.3685 45.8398 44.6289C46.3932 44.8893 46.8457 45.2539 47.1973 45.7227C47.5488 46.1849 47.8092 46.7318 47.9785 47.3633C48.1478 47.9883 48.2324 48.6719 48.2324 49.4141V50.2246H40.3418V48.75H46.4258V48.6133C46.3997 48.1445 46.3021 47.6888 46.1328 47.2461C45.9701 46.8034 45.7096 46.4388 45.3516 46.1523C44.9935 45.8659 44.5052 45.7227 43.8867 45.7227C43.4766 45.7227 43.099 45.8105 42.7539 45.9863C42.4089 46.1556 42.1126 46.4095 41.8652 46.748C41.6178 47.0866 41.4258 47.5 41.2891 47.9883C41.1523 48.4766 41.084 49.0397 41.084 49.6777V50.0879C41.084 50.5892 41.1523 51.0612 41.2891 51.5039C41.4323 51.9401 41.6374 52.3242 41.9043 52.6562C42.1777 52.9883 42.5065 53.2487 42.8906 53.4375C43.2812 53.6263 43.724 53.7207 44.2188 53.7207C44.8568 53.7207 45.3971 53.5905 45.8398 53.3301C46.2826 53.0697 46.6699 52.7214 47.002 52.2852L48.0957 53.1543C47.8678 53.4993 47.5781 53.8281 47.2266 54.1406C46.875 54.4531 46.4421 54.707 45.9277 54.9023C45.4199 55.0977 44.8177 55.1953 44.1211 55.1953ZM52.3047 44.4336V55H50.4883V44.4336H52.3047ZM50.3516 41.6309C50.3516 41.3379 50.4395 41.0905 50.6152 40.8887C50.7975 40.6868 51.0645 40.5859 51.416 40.5859C51.7611 40.5859 52.0247 40.6868 52.207 40.8887C52.3958 41.0905 52.4902 41.3379 52.4902 41.6309C52.4902 41.9108 52.3958 42.1517 52.207 42.3535C52.0247 42.5488 51.7611 42.6465 51.416 42.6465C51.0645 42.6465 50.7975 42.5488 50.6152 42.3535C50.4395 42.1517 50.3516 41.9108 50.3516 41.6309ZM59.6289 44.4336V45.8203H53.916V44.4336H59.6289ZM55.8496 41.8652H57.6562V52.3828C57.6562 52.7409 57.7116 53.0111 57.8223 53.1934C57.9329 53.3757 58.0762 53.4961 58.252 53.5547C58.4277 53.6133 58.6165 53.6426 58.8184 53.6426C58.9681 53.6426 59.1243 53.6296 59.2871 53.6035C59.4564 53.571 59.5833 53.5449 59.668 53.5254L59.6777 55C59.5345 55.0456 59.3457 55.0879 59.1113 55.127C58.8835 55.1725 58.6068 55.1953 58.2812 55.1953C57.8385 55.1953 57.4316 55.1074 57.0605 54.9316C56.6895 54.7559 56.3932 54.4629 56.1719 54.0527C55.957 53.6361 55.8496 53.0762 55.8496 52.373V41.8652ZM67.9785 53.1934V47.7539C67.9785 47.3372 67.8939 46.9759 67.7246 46.6699C67.5618 46.3574 67.3145 46.1165 66.9824 45.9473C66.6504 45.778 66.2402 45.6934 65.752 45.6934C65.2962 45.6934 64.8958 45.7715 64.5508 45.9277C64.2122 46.084 63.9453 46.2891 63.75 46.543C63.5612 46.7969 63.4668 47.0703 63.4668 47.3633H61.6602C61.6602 46.9857 61.7578 46.6113 61.9531 46.2402C62.1484 45.8691 62.4284 45.5339 62.793 45.2344C63.1641 44.9284 63.6068 44.6875 64.1211 44.5117C64.6419 44.3294 65.2214 44.2383 65.8594 44.2383C66.6276 44.2383 67.3047 44.3685 67.8906 44.6289C68.4831 44.8893 68.9453 45.2832 69.2773 45.8105C69.6159 46.3314 69.7852 46.9857 69.7852 47.7734V52.6953C69.7852 53.0469 69.8145 53.4212 69.873 53.8184C69.9382 54.2155 70.0326 54.5573 70.1562 54.8438V55H68.2715C68.1803 54.7917 68.1087 54.515 68.0566 54.1699C68.0046 53.8184 67.9785 53.4928 67.9785 53.1934ZM68.291 48.5938L68.3105 49.8633H66.4844C65.9701 49.8633 65.5111 49.9056 65.1074 49.9902C64.7038 50.0684 64.3652 50.1888 64.0918 50.3516C63.8184 50.5143 63.61 50.7194 63.4668 50.9668C63.3236 51.2077 63.252 51.4909 63.252 51.8164C63.252 52.1484 63.3268 52.4512 63.4766 52.7246C63.6263 52.998 63.8509 53.2161 64.1504 53.3789C64.4564 53.5352 64.8307 53.6133 65.2734 53.6133C65.8268 53.6133 66.3151 53.4961 66.7383 53.2617C67.1615 53.0273 67.4967 52.7409 67.7441 52.4023C67.998 52.0638 68.1348 51.735 68.1543 51.416L68.9258 52.2852C68.8802 52.5586 68.7565 52.8613 68.5547 53.1934C68.3529 53.5254 68.0827 53.8444 67.7441 54.1504C67.4121 54.4499 67.015 54.7005 66.5527 54.9023C66.097 55.0977 65.5827 55.1953 65.0098 55.1953C64.2936 55.1953 63.6654 55.0553 63.125 54.7754C62.5911 54.4954 62.1745 54.1211 61.875 53.6523C61.582 53.1771 61.4355 52.6465 61.4355 52.0605C61.4355 51.4941 61.5462 50.9961 61.7676 50.5664C61.9889 50.1302 62.3079 49.7689 62.7246 49.4824C63.1413 49.1895 63.6426 48.9681 64.2285 48.8184C64.8145 48.6686 65.4688 48.5938 66.1914 48.5938H68.291ZM78.7793 52.1973C78.7793 51.9368 78.7207 51.696 78.6035 51.4746C78.4928 51.2467 78.2617 51.0417 77.9102 50.8594C77.5651 50.6706 77.0443 50.5078 76.3477 50.3711C75.7617 50.2474 75.2311 50.1009 74.7559 49.9316C74.2871 49.7624 73.8867 49.5573 73.5547 49.3164C73.2292 49.0755 72.9785 48.7923 72.8027 48.4668C72.627 48.1413 72.5391 47.7604 72.5391 47.3242C72.5391 46.9076 72.6302 46.5137 72.8125 46.1426C73.0013 45.7715 73.265 45.4427 73.6035 45.1562C73.9486 44.8698 74.362 44.6452 74.8438 44.4824C75.3255 44.3197 75.8626 44.2383 76.4551 44.2383C77.3014 44.2383 78.0241 44.388 78.623 44.6875C79.222 44.987 79.681 45.3874 80 45.8887C80.319 46.3835 80.4785 46.9336 80.4785 47.5391H78.6719C78.6719 47.2461 78.584 46.9629 78.4082 46.6895C78.2389 46.4095 77.9883 46.1784 77.6562 45.9961C77.3307 45.8138 76.9303 45.7227 76.4551 45.7227C75.9538 45.7227 75.5469 45.8008 75.2344 45.957C74.9284 46.1068 74.7038 46.2988 74.5605 46.5332C74.4238 46.7676 74.3555 47.015 74.3555 47.2754C74.3555 47.4707 74.388 47.6465 74.4531 47.8027C74.5247 47.9525 74.6484 48.0924 74.8242 48.2227C75 48.3464 75.2474 48.4635 75.5664 48.5742C75.8854 48.6849 76.2923 48.7956 76.7871 48.9062C77.653 49.1016 78.3659 49.3359 78.9258 49.6094C79.4857 49.8828 79.9023 50.2181 80.1758 50.6152C80.4492 51.0124 80.5859 51.4941 80.5859 52.0605C80.5859 52.5228 80.4883 52.946 80.293 53.3301C80.1042 53.7142 79.8275 54.0462 79.4629 54.3262C79.1048 54.5996 78.6751 54.8145 78.1738 54.9707C77.679 55.1204 77.1224 55.1953 76.5039 55.1953C75.5729 55.1953 74.7852 55.0293 74.1406 54.6973C73.4961 54.3652 73.0078 53.9355 72.6758 53.4082C72.3438 52.8809 72.1777 52.3242 72.1777 51.7383H73.9941C74.0202 52.2331 74.1634 52.627 74.4238 52.9199C74.6842 53.2064 75.0033 53.4115 75.3809 53.5352C75.7585 53.6523 76.1328 53.7109 76.5039 53.7109C76.9987 53.7109 77.4121 53.6458 77.7441 53.5156C78.0827 53.3854 78.3398 53.2064 78.5156 52.9785C78.6914 52.7507 78.7793 52.4902 78.7793 52.1973ZM93.0566 40.7812V55H91.2012V40.7812H93.0566ZM97.627 40.7812V42.3242H86.6406V40.7812H97.627ZM104.99 52.5586V44.4336H106.807V55H105.078L104.99 52.5586ZM105.332 50.332L106.084 50.3125C106.084 51.0156 106.009 51.6667 105.859 52.2656C105.716 52.8581 105.482 53.3724 105.156 53.8086C104.831 54.2448 104.404 54.5866 103.877 54.834C103.35 55.0749 102.708 55.1953 101.953 55.1953C101.439 55.1953 100.967 55.1204 100.537 54.9707C100.114 54.821 99.7493 54.5898 99.4434 54.2773C99.1374 53.9648 98.8997 53.5579 98.7305 53.0566C98.5677 52.5553 98.4863 51.9531 98.4863 51.25V44.4336H100.293V51.2695C100.293 51.7448 100.345 52.1387 100.449 52.4512C100.56 52.7572 100.706 53.0013 100.889 53.1836C101.077 53.3594 101.286 53.4831 101.514 53.5547C101.748 53.6263 101.989 53.6621 102.236 53.6621C103.005 53.6621 103.613 53.5156 104.062 53.2227C104.512 52.9232 104.834 52.5228 105.029 52.0215C105.231 51.5137 105.332 50.9505 105.332 50.332ZM116.221 52.9492V40H118.037V55H116.377L116.221 52.9492ZM109.111 49.834V49.6289C109.111 48.8216 109.209 48.0892 109.404 47.4316C109.606 46.7676 109.889 46.1979 110.254 45.7227C110.625 45.2474 111.064 44.8828 111.572 44.6289C112.087 44.3685 112.66 44.2383 113.291 44.2383C113.955 44.2383 114.535 44.3555 115.029 44.5898C115.531 44.8177 115.954 45.153 116.299 45.5957C116.65 46.0319 116.927 46.5592 117.129 47.1777C117.331 47.7962 117.471 48.4961 117.549 49.2773V50.1758C117.477 50.9505 117.337 51.6471 117.129 52.2656C116.927 52.8841 116.65 53.4115 116.299 53.8477C115.954 54.2839 115.531 54.6191 115.029 54.8535C114.528 55.0814 113.942 55.1953 113.271 55.1953C112.653 55.1953 112.087 55.0618 111.572 54.7949C111.064 54.528 110.625 54.1536 110.254 53.6719C109.889 53.1901 109.606 52.6237 109.404 51.9727C109.209 51.3151 109.111 50.6022 109.111 49.834ZM110.928 49.6289V49.834C110.928 50.3613 110.98 50.8561 111.084 51.3184C111.195 51.7806 111.364 52.1875 111.592 52.5391C111.82 52.8906 112.109 53.1673 112.461 53.3691C112.812 53.5645 113.232 53.6621 113.721 53.6621C114.32 53.6621 114.811 53.5352 115.195 53.2812C115.586 53.0273 115.898 52.6921 116.133 52.2754C116.367 51.8587 116.549 51.4062 116.68 50.918V48.5645C116.602 48.2064 116.488 47.8613 116.338 47.5293C116.195 47.1908 116.006 46.8913 115.771 46.6309C115.544 46.3639 115.26 46.1523 114.922 45.9961C114.59 45.8398 114.196 45.7617 113.74 45.7617C113.245 45.7617 112.819 45.8659 112.461 46.0742C112.109 46.276 111.82 46.556 111.592 46.9141C111.364 47.2656 111.195 47.6758 111.084 48.1445C110.98 48.6068 110.928 49.1016 110.928 49.6289ZM120.371 49.834V49.6094C120.371 48.8477 120.482 48.1413 120.703 47.4902C120.924 46.8327 121.243 46.263 121.66 45.7812C122.077 45.293 122.581 44.9154 123.174 44.6484C123.766 44.375 124.43 44.2383 125.166 44.2383C125.908 44.2383 126.576 44.375 127.168 44.6484C127.767 44.9154 128.275 45.293 128.691 45.7812C129.115 46.263 129.437 46.8327 129.658 47.4902C129.88 48.1413 129.99 48.8477 129.99 49.6094V49.834C129.99 50.5957 129.88 51.3021 129.658 51.9531C129.437 52.6042 129.115 53.1738 128.691 53.6621C128.275 54.1439 127.77 54.5215 127.178 54.7949C126.592 55.0618 125.928 55.1953 125.186 55.1953C124.443 55.1953 123.776 55.0618 123.184 54.7949C122.591 54.5215 122.083 54.1439 121.66 53.6621C121.243 53.1738 120.924 52.6042 120.703 51.9531C120.482 51.3021 120.371 50.5957 120.371 49.834ZM122.178 49.6094V49.834C122.178 50.3613 122.24 50.8594 122.363 51.3281C122.487 51.7904 122.673 52.2005 122.92 52.5586C123.174 52.9167 123.49 53.1999 123.867 53.4082C124.245 53.61 124.684 53.7109 125.186 53.7109C125.68 53.7109 126.113 53.61 126.484 53.4082C126.862 53.1999 127.174 52.9167 127.422 52.5586C127.669 52.2005 127.855 51.7904 127.979 51.3281C128.109 50.8594 128.174 50.3613 128.174 49.834V49.6094C128.174 49.0885 128.109 48.597 127.979 48.1348C127.855 47.666 127.666 47.2526 127.412 46.8945C127.165 46.5299 126.852 46.2435 126.475 46.0352C126.104 45.8268 125.667 45.7227 125.166 45.7227C124.671 45.7227 124.235 45.8268 123.857 46.0352C123.486 46.2435 123.174 46.5299 122.92 46.8945C122.673 47.2526 122.487 47.666 122.363 48.1348C122.24 48.597 122.178 49.0885 122.178 49.6094ZM143.877 52.9492V40H145.693V55H144.033L143.877 52.9492ZM136.768 49.834V49.6289C136.768 48.8216 136.865 48.0892 137.061 47.4316C137.262 46.7676 137.546 46.1979 137.91 45.7227C138.281 45.2474 138.721 44.8828 139.229 44.6289C139.743 44.3685 140.316 44.2383 140.947 44.2383C141.611 44.2383 142.191 44.3555 142.686 44.5898C143.187 44.8177 143.61 45.153 143.955 45.5957C144.307 46.0319 144.583 46.5592 144.785 47.1777C144.987 47.7962 145.127 48.4961 145.205 49.2773V50.1758C145.133 50.9505 144.993 51.6471 144.785 52.2656C144.583 52.8841 144.307 53.4115 143.955 53.8477C143.61 54.2839 143.187 54.6191 142.686 54.8535C142.184 55.0814 141.598 55.1953 140.928 55.1953C140.309 55.1953 139.743 55.0618 139.229 54.7949C138.721 54.528 138.281 54.1536 137.91 53.6719C137.546 53.1901 137.262 52.6237 137.061 51.9727C136.865 51.3151 136.768 50.6022 136.768 49.834ZM138.584 49.6289V49.834C138.584 50.3613 138.636 50.8561 138.74 51.3184C138.851 51.7806 139.02 52.1875 139.248 52.5391C139.476 52.8906 139.766 53.1673 140.117 53.3691C140.469 53.5645 140.889 53.6621 141.377 53.6621C141.976 53.6621 142.467 53.5352 142.852 53.2812C143.242 53.0273 143.555 52.6921 143.789 52.2754C144.023 51.8587 144.206 51.4062 144.336 50.918V48.5645C144.258 48.2064 144.144 47.8613 143.994 47.5293C143.851 47.1908 143.662 46.8913 143.428 46.6309C143.2 46.3639 142.917 46.1523 142.578 45.9961C142.246 45.8398 141.852 45.7617 141.396 45.7617C140.902 45.7617 140.475 45.8659 140.117 46.0742C139.766 46.276 139.476 46.556 139.248 46.9141C139.02 47.2656 138.851 47.6758 138.74 48.1445C138.636 48.6068 138.584 49.1016 138.584 49.6289ZM152.891 55.1953C152.155 55.1953 151.488 55.0716 150.889 54.8242C150.296 54.5703 149.785 54.2155 149.355 53.7598C148.932 53.304 148.607 52.7637 148.379 52.1387C148.151 51.5137 148.037 50.8301 148.037 50.0879V49.6777C148.037 48.8184 148.164 48.0534 148.418 47.3828C148.672 46.7057 149.017 46.1328 149.453 45.6641C149.889 45.1953 150.384 44.8405 150.938 44.5996C151.491 44.3587 152.064 44.2383 152.656 44.2383C153.411 44.2383 154.062 44.3685 154.609 44.6289C155.163 44.8893 155.615 45.2539 155.967 45.7227C156.318 46.1849 156.579 46.7318 156.748 47.3633C156.917 47.9883 157.002 48.6719 157.002 49.4141V50.2246H149.111V48.75H155.195V48.6133C155.169 48.1445 155.072 47.6888 154.902 47.2461C154.74 46.8034 154.479 46.4388 154.121 46.1523C153.763 45.8659 153.275 45.7227 152.656 45.7227C152.246 45.7227 151.868 45.8105 151.523 45.9863C151.178 46.1556 150.882 46.4095 150.635 46.748C150.387 47.0866 150.195 47.5 150.059 47.9883C149.922 48.4766 149.854 49.0397 149.854 49.6777V50.0879C149.854 50.5892 149.922 51.0612 150.059 51.5039C150.202 51.9401 150.407 52.3242 150.674 52.6562C150.947 52.9883 151.276 53.2487 151.66 53.4375C152.051 53.6263 152.493 53.7207 152.988 53.7207C153.626 53.7207 154.167 53.5905 154.609 53.3301C155.052 53.0697 155.439 52.7214 155.771 52.2852L156.865 53.1543C156.637 53.4993 156.348 53.8281 155.996 54.1406C155.645 54.4531 155.212 54.707 154.697 54.9023C154.189 55.0977 153.587 55.1953 152.891 55.1953ZM169.414 48.3496H165.811L165.791 46.8359H169.062C169.603 46.8359 170.075 46.7448 170.479 46.5625C170.882 46.3802 171.195 46.1198 171.416 45.7812C171.644 45.4362 171.758 45.026 171.758 44.5508C171.758 44.0299 171.657 43.6068 171.455 43.2812C171.26 42.9492 170.957 42.7083 170.547 42.5586C170.143 42.4023 169.629 42.3242 169.004 42.3242H166.23V55H164.346V40.7812H169.004C169.733 40.7812 170.384 40.8561 170.957 41.0059C171.53 41.1491 172.015 41.377 172.412 41.6895C172.816 41.9954 173.122 42.3861 173.33 42.8613C173.538 43.3366 173.643 43.9062 173.643 44.5703C173.643 45.1562 173.493 45.6868 173.193 46.1621C172.894 46.6309 172.477 47.015 171.943 47.3145C171.416 47.6139 170.798 47.806 170.088 47.8906L169.414 48.3496ZM169.326 55H165.068L166.133 53.4668H169.326C169.925 53.4668 170.433 53.3626 170.85 53.1543C171.273 52.946 171.595 52.653 171.816 52.2754C172.038 51.8913 172.148 51.4388 172.148 50.918C172.148 50.3906 172.054 49.9349 171.865 49.5508C171.676 49.1667 171.38 48.8704 170.977 48.6621C170.573 48.4538 170.052 48.3496 169.414 48.3496H166.729L166.748 46.8359H170.42L170.82 47.3828C171.504 47.4414 172.083 47.6367 172.559 47.9688C173.034 48.2943 173.395 48.7109 173.643 49.2188C173.896 49.7266 174.023 50.2865 174.023 50.8984C174.023 51.7839 173.828 52.5326 173.438 53.1445C173.053 53.75 172.51 54.2122 171.807 54.5312C171.104 54.8438 170.277 55 169.326 55ZM176.055 49.834V49.6094C176.055 48.8477 176.165 48.1413 176.387 47.4902C176.608 46.8327 176.927 46.263 177.344 45.7812C177.76 45.293 178.265 44.9154 178.857 44.6484C179.45 44.375 180.114 44.2383 180.85 44.2383C181.592 44.2383 182.259 44.375 182.852 44.6484C183.451 44.9154 183.958 45.293 184.375 45.7812C184.798 46.263 185.12 46.8327 185.342 47.4902C185.563 48.1413 185.674 48.8477 185.674 49.6094V49.834C185.674 50.5957 185.563 51.3021 185.342 51.9531C185.12 52.6042 184.798 53.1738 184.375 53.6621C183.958 54.1439 183.454 54.5215 182.861 54.7949C182.275 55.0618 181.611 55.1953 180.869 55.1953C180.127 55.1953 179.46 55.0618 178.867 54.7949C178.275 54.5215 177.767 54.1439 177.344 53.6621C176.927 53.1738 176.608 52.6042 176.387 51.9531C176.165 51.3021 176.055 50.5957 176.055 49.834ZM177.861 49.6094V49.834C177.861 50.3613 177.923 50.8594 178.047 51.3281C178.171 51.7904 178.356 52.2005 178.604 52.5586C178.857 52.9167 179.173 53.1999 179.551 53.4082C179.928 53.61 180.368 53.7109 180.869 53.7109C181.364 53.7109 181.797 53.61 182.168 53.4082C182.546 53.1999 182.858 52.9167 183.105 52.5586C183.353 52.2005 183.538 51.7904 183.662 51.3281C183.792 50.8594 183.857 50.3613 183.857 49.834V49.6094C183.857 49.0885 183.792 48.597 183.662 48.1348C183.538 47.666 183.35 47.2526 183.096 46.8945C182.848 46.5299 182.536 46.2435 182.158 46.0352C181.787 45.8268 181.351 45.7227 180.85 45.7227C180.355 45.7227 179.919 45.8268 179.541 46.0352C179.17 46.2435 178.857 46.5299 178.604 46.8945C178.356 47.2526 178.171 47.666 178.047 48.1348C177.923 48.597 177.861 49.0885 177.861 49.6094ZM189.736 46.5332V55H187.92V44.4336H189.639L189.736 46.5332ZM189.365 49.3164L188.525 49.2871C188.532 48.5645 188.626 47.8971 188.809 47.2852C188.991 46.6667 189.261 46.1296 189.619 45.6738C189.977 45.2181 190.423 44.8665 190.957 44.6191C191.491 44.3652 192.109 44.2383 192.812 44.2383C193.307 44.2383 193.763 44.3099 194.18 44.4531C194.596 44.5898 194.958 44.8079 195.264 45.1074C195.57 45.4069 195.807 45.791 195.977 46.2598C196.146 46.7285 196.23 47.2949 196.23 47.959V55H194.424V48.0469C194.424 47.4935 194.329 47.0508 194.141 46.7188C193.958 46.3867 193.698 46.1458 193.359 45.9961C193.021 45.8398 192.624 45.7617 192.168 45.7617C191.634 45.7617 191.188 45.8561 190.83 46.0449C190.472 46.2337 190.186 46.4941 189.971 46.8262C189.756 47.1582 189.6 47.5391 189.502 47.9688C189.411 48.3919 189.365 48.8411 189.365 49.3164ZM196.211 48.3203L195 48.6914C195.007 48.112 195.101 47.5553 195.283 47.0215C195.472 46.4876 195.742 46.0124 196.094 45.5957C196.452 45.179 196.891 44.8503 197.412 44.6094C197.933 44.362 198.529 44.2383 199.199 44.2383C199.766 44.2383 200.267 44.3132 200.703 44.4629C201.146 44.6126 201.517 44.8438 201.816 45.1562C202.122 45.4622 202.354 45.8561 202.51 46.3379C202.666 46.8197 202.744 47.3926 202.744 48.0566V55H200.928V48.0371C200.928 47.4447 200.833 46.9857 200.645 46.6602C200.462 46.3281 200.202 46.097 199.863 45.9668C199.531 45.8301 199.134 45.7617 198.672 45.7617C198.275 45.7617 197.923 45.8301 197.617 45.9668C197.311 46.1035 197.054 46.2923 196.846 46.5332C196.637 46.7676 196.478 47.0378 196.367 47.3438C196.263 47.6497 196.211 47.9753 196.211 48.3203Z" fill="white"/>
<path d="M100.12 28.904C99.736 28.904 99.296 28.696 98.8 28.28C98.304 27.864 97.784 27.32 97.24 26.648C96.712 25.976 96.184 25.24 95.656 24.44C95.144 23.624 94.656 22.808 94.192 21.992C93.728 21.176 93.336 20.44 93.016 19.784C92.584 21.256 92.168 22.712 91.768 24.152C91.384 25.576 91.016 26.896 90.664 28.112C90.2 28.112 89.76 27.984 89.344 27.728C88.944 27.472 88.744 27.136 88.744 26.72C88.744 26.544 88.784 26.336 88.864 26.096C88.944 25.856 89.016 25.624 89.08 25.4C89.544 24.008 89.96 22.768 90.328 21.68C90.696 20.576 91.04 19.568 91.36 18.656C91.696 17.728 92.032 16.816 92.368 15.92C92.72 15.008 93.104 14.056 93.52 13.064C93.936 12.072 94.416 10.952 94.96 9.704C94.336 9.832 93.784 10 93.304 10.208C92.84 10.416 92.456 10.6 92.152 10.76C91.864 10.92 91.664 11 91.552 11C91.472 11 91.352 10.952 91.192 10.856C91.032 10.744 90.888 10.616 90.76 10.472C90.648 10.312 90.592 10.176 90.592 10.064C91.04 9.888 91.56 9.696 92.152 9.488C92.76 9.28 93.424 9.104 94.144 8.96C94.864 8.8 95.608 8.72 96.376 8.72C97.096 8.72 97.84 8.808 98.608 8.984C99.376 9.144 100.088 9.408 100.744 9.776C101.4 10.144 101.928 10.624 102.328 11.216C102.728 11.808 102.928 12.52 102.928 13.352C102.928 14.104 102.76 14.76 102.424 15.32C102.088 15.864 101.64 16.328 101.08 16.712C100.52 17.096 99.904 17.408 99.232 17.648C98.56 17.888 97.88 18.08 97.192 18.224C96.504 18.352 95.864 18.44 95.272 18.488C94.696 18.536 94.216 18.568 93.832 18.584C94.344 19.4 94.848 20.192 95.344 20.96C95.84 21.728 96.368 22.496 96.928 23.264C97.504 24.016 98.168 24.776 98.92 25.544C99.672 26.296 100.56 27.064 101.584 27.848C101.52 28.168 101.32 28.424 100.984 28.616C100.664 28.808 100.376 28.904 100.12 28.904ZM93.568 17.864C94.464 17.8 95.344 17.656 96.208 17.432C97.088 17.208 97.88 16.896 98.584 16.496C99.304 16.096 99.872 15.6 100.288 15.008C100.72 14.4 100.936 13.688 100.936 12.872C100.936 12.04 100.728 11.392 100.312 10.928C99.896 10.448 99.36 10.104 98.704 9.896C98.048 9.688 97.36 9.576 96.64 9.56C96.096 10.632 95.568 11.896 95.056 13.352C94.544 14.792 94.048 16.296 93.568 17.864ZM107.889 28.088C107.009 28.088 106.401 27.912 106.065 27.56C105.729 27.224 105.553 26.784 105.537 26.24C105.537 25.776 105.625 25.224 105.801 24.584C105.993 23.928 106.185 23.304 106.377 22.712C106.761 21.576 107.161 20.456 107.577 19.352C107.993 18.248 108.409 17.184 108.825 16.16C109.257 15.136 109.665 14.16 110.049 13.232C110.449 12.304 110.817 11.448 111.153 10.664C110.065 10.68 109.121 10.712 108.321 10.76C107.537 10.808 106.817 10.872 106.161 10.952C105.505 11.016 104.825 11.112 104.121 11.24C104.201 10.568 104.513 10.056 105.057 9.704C105.617 9.336 106.361 9.08 107.289 8.936C108.217 8.792 109.281 8.72 110.481 8.72C111.105 8.72 111.689 8.736 112.233 8.768C112.793 8.784 113.321 8.816 113.817 8.864C114.329 8.912 114.825 8.96 115.305 9.008C116.313 9.104 117.113 9.168 117.705 9.2C118.313 9.232 118.745 9.248 119.001 9.248C118.521 9.696 117.913 10.024 117.177 10.232C116.457 10.424 115.697 10.544 114.897 10.592C114.097 10.64 113.337 10.664 112.617 10.664C111.849 12.552 111.145 14.512 110.505 16.544C109.865 18.576 109.273 20.584 108.729 22.568C108.521 23.336 108.345 23.992 108.201 24.536C108.073 25.064 107.977 25.552 107.913 26C107.849 26.432 107.817 26.896 107.817 27.392C107.817 27.472 107.817 27.56 107.817 27.656C107.833 27.768 107.857 27.912 107.889 28.088Z" fill="white"/>
<line x1="89" y1="34" x2="114" y2="34" stroke="white" stroke-width="2"/>
</svg>
